# xmcd
#
# Track frame offsets:
# 150
# 13191
# 28436
# 45465
# 62859
# 87293
# 115680
# 131328
# 145007
# 164094
# 176176
# 199240
#
# Disc length: 2907 seconds
#
#
# Revision: 0
# Processed by: cddbd v1.5.1PL0 Copyright (c) Steve Scherf et al.
# Submitted via: FreeRIP 2.53 
#
DISCID=ad0b590c
DTITLE=The Skyla Burrell Blues Band - Working Girl Blues
DYEAR=2004
DGENRE=Blues
TTITLE0=Back To My baby
TTITLE1=Are You Kidding Me
TTITLE2=Bad Dream
TTITLE3=Lover Man
TTITLE4=Working Girl blues
TTITLE5=Before You Go
TTITLE6=Mean Women
TTITLE7=Gonna Be Mine Tonight
TTITLE8=Love So Strong
TTITLE9=Bad Luck Boogie
TTITLE10=Looking Out For My Future
TTITLE11=Satisfaction Guaranteed
EXTD=BluesfestRadio.com
EXTT0=
EXTT1=
EXTT2=
EXTT3=
EXTT4=
EXTT5=
EXTT6=
EXTT7=
EXTT8=
EXTT9=
EXTT10=
EXTT11=
PLAYORDER=
